<?xml version="1.0" encoding="UTF-8"?>
<!DOCTYPE svg PUBLIC "-//W3C//DTD SVG 1.1//EN" "http://www.w3.org/Graphics/SVG/1.1/DTD/svg11.dtd">
<!-- Creator: CorelDRAW -->
<svg xmlns="http://www.w3.org/2000/svg" xml:space="preserve" width="1.7778mm" height="1.7778mm" version="1.1" style="shape-rendering:geometricPrecision; text-rendering:geometricPrecision; image-rendering:optimizeQuality; fill-rule:evenodd; clip-rule:evenodd"
viewBox="0 0 177.78 177.78"
 xmlns:xlink="http://www.w3.org/1999/xlink"
 xmlns:xodm="http://www.corel.com/coreldraw/odm/2003">
 <defs>
  <style type="text/css">
   <![CDATA[
    .fil0 {fill:#DFDAD8}
   ]]>
  </style>
 </defs>
 <g id="Layer_x0020_1">
  <metadata id="CorelCorpID_0Corel-Layer"/>
  <g id="_2060677896576">
   <path class="fil0" d="M-0.01 25.66l0 23.81c0,1.41 1.03,2.64 2.36,2.64 4.22,0 3.03,-6.52 3.03,-10.58 0,-4.52 0,-9.04 0,-13.56 0,-5.45 0.25,-7.66 3.11,-10.51 2.38,-2.35 5.05,-4.04 9.71,-4.04l86.69 0 0 20.17c0,8.17 2.61,14.62 9.21,18.09 1.76,0.92 4.8,2.09 7.32,2.09l24.62 0 0 37.7c0,1.55 -14.28,28.05 -14.84,30.42l-0.68 0c-0.27,-1.15 -5.45,-9.66 -6.99,-11 -5.11,-4.43 -10.49,-0.23 -14.95,2.38 -2.88,1.7 -6.03,3.1 -6.39,7.3l-73.2 0c-4.35,0 -8.09,-0.94 -8.09,2.97 0,2.9 5.53,1.99 8.43,1.99l73.87 0c1.18,2.19 2.44,4.15 3.73,6.26l11.39 18.6c4.43,7.22 6.9,5.19 14.23,5.23 3.32,0.02 6.13,0.19 8.89,-1.2 1.47,-0.73 1.82,-0.97 2.73,-2.29 0.85,-1.24 1.11,-2.26 1.87,-3.12 0,5.53 0.9,13.16 -1.11,17.09 -1.88,3.67 -6.18,6.72 -11.71,6.72l-115.02 0c-5.16,0 -8.78,-2.38 -10.94,-5.48 -2.62,-3.73 -1.88,-8.72 -1.88,-14.69l0 -90.29c0.06,-8.85 -5.39,-5.41 -5.39,-2.97l0 101.19c0,9.51 8.27,17.2 16.19,17.2l119.07 0c4.92,0 10.59,-3.55 13.1,-7.33 3.54,-5.35 3.09,-9.06 3.09,-17.47 0,-3.31 0,-6.62 0,-9.92 0,-5.59 -0.18,-4.62 1.8,-8.49 1.44,-2.83 6.63,-12.19 6.63,-14.66 0,-0.94 -1.41,-1.99 -2.36,-1.99 -2.36,0 -2.92,2.43 -3.82,4.19 -0.97,1.9 -1.74,3.4 -2.7,5.29l-10.78 21.19c-1.25,2.37 -3.08,1.64 -6.32,1.73l-7.75 0.34c-2.35,0 -3.68,-3.43 -5.54,-6.47 -1.64,-2.67 -13.35,-21.34 -13.35,-22.63 0,-2.21 4.49,-4.12 7.27,-5.76 1.17,-0.69 2.84,-2.05 4.34,-1.68 2.29,0.57 6.8,9.47 8.1,11.6 0.75,1.23 3.95,7.78 6.84,2.36l15.39 -30.55c1.25,-2.45 1.03,-3.42 3.93,-3.42 1.25,0 4.93,2.08 6.08,2.65 2.33,1.14 4.72,1.52 4.72,4.3 0,2.09 -4.72,8.5 -4.72,10.58 0,1.62 1.98,2.87 3.43,2.4 2.11,-0.69 6.69,-11.03 6.69,-12.98 0,-4.73 -2.84,-6.53 -6.19,-8.16 -4.48,-2.18 -6.52,-4.08 -11.69,-4.08l0 -37.37c0,-1.8 -2.95,-4.05 -4.81,-5.87l-27.15 -26.62c-1.39,-1.36 -10.16,-10.5 -11.22,-10.5l-91.75 0c-5.29,0 -8.81,2.54 -11.55,5.21 -2.8,2.72 -4.97,6.65 -4.97,11.99z"/>
   <path class="fil0" d="M20.9 105.36c0,1.77 0.79,2.97 2.7,2.97l104.23 0c3.4,0 4.22,-5.29 -1.02,-5.29l-102.88 0c-1.39,0 -3.03,1.11 -3.03,2.32z"/>
   <path class="fil0" d="M20.9 88.49c0,1.85 1.98,2.65 3.71,2.65l102.2 0c4.98,0 4.59,-5.3 1.02,-5.3l-104.23 0c-1.63,0 -2.7,1.05 -2.7,2.65z"/>
   <path class="fil0" d="M18.2 48.81c0,14.78 14.88,24.53 27.19,21.03 10.22,-2.91 12.07,-9.79 6.54,-9.79 -1.02,0 -1.95,1.81 -4.78,3.58 -7.29,4.58 -23.55,0.14 -23.55,-15.15 0,-11.13 12.38,-20.01 24.62,-13.9 1.69,0.84 5.4,2.9 5.4,-1.98 0,-2.7 -14.68,-9.27 -25.55,-1.57 -0.55,0.39 -1,0.75 -1.52,1.16 -5.02,4.06 -8.35,9.82 -8.35,16.62z"/>
   <path class="fil0" d="M60.7 29.29c0,3.04 2.38,8.15 3.42,11.21l9.26 26.29c0.64,1.83 1.35,3.53 3.59,3.7 3.81,0.29 4.67,-5.48 5.61,-8.5l10.84 -32.03c0,-1.63 -2.04,-3.01 -3.67,-2.31 -1.56,0.67 -1.87,2.54 -2.44,4.25l-8.44 24.8c-0.57,1.68 -1.04,4 -1.98,4.67 -0.13,-1.6 -2.29,-6.92 -2.99,-8.97 -0.74,-2.17 -7.97,-23.32 -8.77,-24.14 -1.85,-1.9 -4.43,-0.39 -4.43,1.03z"/>
   <path class="fil0" d="M20.9 140.41c0,1.97 1.36,2.65 3.37,2.65l56 0c3.67,0 3.67,-5.29 0,-5.29l-56.34 0c-1.63,0 -3.03,0.93 -3.03,2.64z"/>
  </g>
 </g>
</svg>
