<?xml version="1.0" encoding="UTF-8"?>
<!DOCTYPE svg PUBLIC "-//W3C//DTD SVG 1.1//EN" "http://www.w3.org/Graphics/SVG/1.1/DTD/svg11.dtd">
<!-- Creator: CorelDRAW -->
<svg xmlns="http://www.w3.org/2000/svg" xml:space="preserve" width="2.904mm" height="1.2698mm" version="1.1" style="shape-rendering:geometricPrecision; text-rendering:geometricPrecision; image-rendering:optimizeQuality; fill-rule:evenodd; clip-rule:evenodd"
viewBox="0 0 290.4 126.98"
 xmlns:xlink="http://www.w3.org/1999/xlink"
 xmlns:xodm="http://www.corel.com/coreldraw/odm/2003">
 <defs>
  <style type="text/css">
   <![CDATA[
    .fil0 {fill:#DFDAD8;fill-rule:nonzero}
   ]]>
  </style>
 </defs>
 <g id="Layer_x0020_1">
  <metadata id="CorelCorpID_0Corel-Layer"/>
  <g id="_1457569652384">
   <g>
    <g>
     <path class="fil0" d="M137.25 126.33c-8.98,0 -17.69,-3.57 -24.45,-10.38l-58.12 -58.52c-5.46,-5.49 -12.89,-7.15 -20.04,-4.53 -7.86,2.87 -12.73,10.84 -12.73,19.26l0 41.65c0,6.92 -5.57,12.52 -12.44,12.52l0 0c-6.87,0 -12.44,-5.6 -12.44,-12.52l0 -40.94c0,-19.98 12.37,-38.38 31.32,-44.26 15.63,-4.86 32.12,-0.77 43.92,11.11l58.12 58.52c4.39,4.42 9.46,2.79 10.91,2.19 1.45,-0.61 6.18,-3.06 6.18,-9.31l0 -26.08c0,-30.89 24.87,-55.93 55.55,-55.93l63.51 0c6.87,0 12.44,5.61 12.44,12.52l0 0c0,6.92 -5.57,12.53 -12.44,12.53l-63.51 0c-16.94,0 -30.67,13.82 -30.67,30.88l0 24.53c0,15.58 -9.43,30.09 -24.12,34.96 -3.63,1.21 -7.33,1.8 -10.99,1.8z"/>
     <path class="fil0" d="M241.52 80.02l0 25.2c0,6.92 -5.57,12.52 -12.44,12.52l0 0c-6.87,0 -12.44,-5.6 -12.44,-12.52l0 -25.2c0,-6.91 5.57,-12.52 12.44,-12.52l0 0c6.87,0 12.44,5.61 12.44,12.52z"/>
    </g>
   </g>
  </g>
 </g>
</svg>
